<?xml version="1.0" encoding="UTF-8"?>
<svg id="Layer_2" data-name="Layer 2" xmlns="http://www.w3.org/2000/svg" viewBox="0 0 204 72.21">
  <defs>
    <style>
      .cls-1 {
        fill: #27486b;
      }

      .cls-1, .cls-2 {
        stroke-width: 0px;
      }

      .cls-2 {
        fill: #992620;
      }
    </style>
  </defs>
  <g id="Layer_1-2" data-name="Layer 1">
    <g>
      <g>
        <path class="cls-1" d="M80.9,45.21l1.26.11,1.25.28,1.28-.09,1.17-.56,1.25-.27,1.01-.79.96-.81.81-.96.95-.84.61-1.11.65-1.07.8-1,.68-1.09.15-1.26.42-1.15.47-1.13.45-1.14.76-1.02.48-1.13.2-1.24.33-1.19.6-1.08.67-1.06.24-1.23.32-1.19.76-1.02.25-1.3,1.58-.05.51,1.28.68,1.09.36,1.24.52,1.16.59,1.13.54,1.15.56,1.14.7,1.07.35,1.25.52,1.16.53,1.16.69,1.08.6,1.13.38,1.23.84,1.01.32,1.13.53,1.03.55,1.02.66.95.67.95.93.73h.97s.49.06.49.06l-.16.55.15.27-1.23-.09-1.27.19-1.27.25-1.27-.45-1.27.28-1.27-.06-1.27.02-1.27-.08-1.29.1.09-1.1.34.02.77-.89.02-1.23-.3-1.2-.32-1.21-.67-1.06-.37-.92-1.3-.18-1.32.2-1.32-.13-1.32.24-1.32-.11-1.37-.27.08.59-.69,1.03-.41,1.14-.74.97-.58,1.05-.5,1.11-.86.87-.46,1.17-1.01.73-.52,1.16-1.06.65-.85.87-.99.7-1.14.43-1.03.68-1.25-.06-1.16.48-1.22-.17-1.18-.41-.76-.98-.11-1.17.14-1.03.35-1.02.83-.71,1.05.04ZM95.54,35.93l1.41-.09,1.33.2h1.33s1.33-.25,1.33-.25l1.43.19-.67-1.18-.57-1.11-.64-1.08-.36-1.21-.67-1.06-.55-1.12-.37-1.24-.57,1.11-.11,1.24-.39,1.13-.44,1.12-.42,1.12-.73,1-.35,1.24Z"/>
        <path class="cls-1" d="M112.51,53.7l1.12-.22.92-.78.88-.77.73-.96.04-1.22.11-1.15.3-1.14-.12-1.17.28-1.17-.06-1.33-.16-1.33.26-1.33-.02-1.33.13-1.33-.36-1.33.04-1.29.06-1.29-.18-1.3-.93-.91-.85-1.02-.45-.02v-.29s1.01-.69,1.01-.69l1.18-.28,1.12-.43,1.09-.52,1.2-.23,1.03-.7,1.13.03-.02,1.77.14,1.24-.05,1.24-.34,1.24.21,1.24.07,1.24.03,1.24.08,1.24-.09,1.24-.12,1.24.06,1.24-.08,1.24-.18,1.19.34,1.23-.59,1.12-.23,1.16-.49,1.07-.37,1.19-.86.88-1,.69-1.13.44-1,.68-1.12.45-1.2.21-1.04.39-.52-.65ZM119.03,19.91l1.07.32,1.05.41.53,1.02v1.13s.15,1.18.15,1.18l-.55,1.09-1.11.49-1.14.36-1.1-.45-.98-.55-.74-.93.08-1.19.15-1.11.65-.87.75-.92,1.18.03Z"/>
        <path class="cls-1" d="M124.98,44.53l-.15-.78.39.02.98-.76.69-1.12.43-1.28v-1.35s-.03-1.34-.03-1.34l-.05-1.2.27-1.21-.46-1.16-.14-1.19-.69-.98-.96-.73-.43-.04.09-.34,1.01-.63,1.13-.37,1.13-.39,1.07-.54,1.1-.46,1.14-.33,1.14-.16-.34,1.52.18,1.43-.12,1.45.52-1.23.67-1.06.82-.94.79-.95.76-.98.84-.91.95-.79.82-.93,1.13-.55.92-.85,1.16-.44,1.1-.54,1.08-.67,1.21-.32,1.24-.17,1.25-.11,1.26-.02,1.02.59.89.53.5.92.22,1.06-.36,1.35-1.17.74-1.36.03-1.12-.23-1.13-.15-1.09-.34-1.13.09-1.27-.1-1.24.3-1.21.39-1.28.28-1.14.62-.82,1.05-.9.9-1.05.76-.8,1-.6,1.14-.89.96-.5,1.22.18,1.32-.09,1.32-.11,1.32.07,1.29.45,1.23.17,1.25.47,1.18,1.05.75.49-.2-.07.86-.04.31-1.24.11-1.27-.15-1.27.22-1.27-.3-1.27.24-1.27.02-1.27-.18-1.33.29.18-.56Z"/>
        <path class="cls-1" d="M146.37,35.49l.36-1.38v-1.43s-.18-1.22-.18-1.22l-.27-1.22-1.06-.47-1.39.15-.74,1.26-.05,1.4.07,1.31-1.2.31-1.29.02-1.36.17-1.42-.31.24-1.42.14-1.34.87-1.02,1.15-.64,1.18-.48,1.17-.49,1.23-.4,1.29-.03,1.29-.05,1.28.12,1.29.23.94.93,1.1.71.4,1.25.26,1.22.37,1.24-.26,1.26.14,1.27v1.26s-.04,1.27-.04,1.27l.1,1.27.18,1.1.13,1.18,1.15.1,1.5-.42.43.61-.66.95-1,.8-1.15.65-1.31.21-1.32-.05-1.23-.15-1.01-.68-.68-1.15-1.31.72-1.22.52-1.25.49-1.34.11-1.12-.34-1.09-.31-.96-.64-.61-.97-.71-.96-.16-1.19.37-1.26.74-1.01.79-.99,1.02-.84,1.22-.52,1.28-.3,1.29-.21,1.29-.25,1.15.07ZM145.04,42.42l1.72-.25v-1.44s-.11-1.39-.11-1.39l.07-1.39-.34-1.34-1.08-.15-1.19.4-.9.87-.63,1.04-.12,1.2.22,1.38,1.13.76,1.22.32Z"/>
        <path class="cls-1" d="M155.31,45.07l.25-.54-.15-.67.33.12.85-.99.59-1.06.68-1.15.02-1.31.14-1.29-.02-1.15-.21-1.15-.05-1.15.22-1.15-.09-1.15.09-1.15-.04-1.15.07-1.21-.02-1.21-.37-1.18-.13-1.22-.72-1.01-1.07-.59-.34-.18-.06-.48,1.17-.33,1.14-.38,1.07-.54,1.12-.43,1.18-.29,1.01-.73.94.17-.06,1.19.1,1.28.17,1.28.12,1.28-.3,1.28-.02,1.28-.12,1.28.22,1.28.17,1.28-.39,1.28.24,1.28v1.22s.75-.74.75-.74l.92-.92.92-.92.95-.88,1.19-.65.85-1,.34-1.05-.28-.87.26-.19,1.13-.12,1.2-.14,1.2.13,1.2-.18,1.11.2-.04.95-.32-.03-1.3.33-1.12.7-1.11.69-1.19.57-.9.99-1.13.66.65.99.84.85.7.95.54,1.07.8.88.9.8.74,1.03.82.97.86.94.82,1,1.19.52,1.12.52.49.07-.18.99-1.07.06-1.19.04-1.19.24-1.19-.2-1.19.19-1.19-.15-1.19-.13-1.19-.09-1.17.1.05-.34v-.68s.15-.08.15-.08l-.1-1.09-.45-1.24-.74-1.09-.84-1.02-.55-1.24-.97-1.16-.94-1.16v1.2s-.07,1.21-.07,1.21l-.13,1.3.26,1.28.33,1.26.65,1.13,1.05.72h.36s-.13.68-.13.68l.13.23-1.22.29-1.27-.21-1.27.03-1.28.17-1.28-.28-1.28.36-1.29-.37-1.31.32Z"/>
        <path class="cls-1" d="M189.46,34.26l-.1-1.17-.16-1.24-.8-.98-1.2-.46-.92.67-.93.52-.69.81-.14,1.15v1.16s-.1,1.16-.1,1.16l.36,1.16-.17,1.16.18,1.27-.1,1.31.57,1.18.38,1.22,1.06.88.37-.31.21.12-.18,1.11-1.27.18-1.26-.24-1.26.18-1.26-.3-1.26.08-1.26-.11-1.26.26-1.33.02.21-1.13.24.08,1.21-.7.48-1.25.07-1.3.27-1.25-.06-1.28.07-1.15-.15-1.15.07-1.15.09-1.15.16-1.15-.15-1.16-.1-1.16.02-1.2-.17-1.19v-1.19s-.02-1.25-.02-1.25l-.71-1.06-1.09-.6-.27-.27-.22-.27,1.17-.33,1.15-.34.99-.71,1.08-.5,1.13-.4,1.19-.15,1.17-.34-.29,1.4.15,1.27-.07,1.27.11,1.27-.14,1.27.06,1.27v1.27s.21,1.22.21,1.22l.75-.59.81-.85,1.18-.16.97-.66,1.14-.16,1.14.12,1.32-.07,1.23.57.47,1.27.87,1.06.1,1.33.11,1.31v1.33s-.21,1.33-.21,1.33l.14,1.33-.25,1.33.12,1.33.3,1.1-.35,1.1v1.1s.23,1.09.23,1.09l-.06,1.12.29,1.09.14,1.1.25,1.12.94.64,1.2.2,1.02-.67.92-.78.76-.94,1.5-.39,1.46.2.55,1.32.16,1.22-.51,1.17-.98.87-1.28.22-1.21.17-1.22.28-1.24.05-1.18-.39-1.1-.53-1.02-.62-1.01-.66-1.16-.51-.81-.94-.74-1-.19-1.26-.66-1.07.15-1.26-.39-1.2.3-1.29-.14-1.29v-1.3s-.06-1.3-.06-1.3l-.13-1.3.06-1.29-.03-1.3Z"/>
      </g>
      <g>
        <path class="cls-2" d="M48.21,17.39c.75,1.05,1.62,2.27,2.49,3.49-.21.21-.4.4-.86.86.73.39,1.39,1.06,2.05,1.05,1.82-.02,3.02,1.04,4.47,1.91-.55,1.49-1.04,2.83-1.56,4.24,1.15,1.49,3.66,1.35,4.77,3.45-1.03.68-2.01,1.33-2.49,1.65v3.36c.85.53,1.59.99,2.27,1.42v2.79c-1.12.64-2.39,1.36-3.84,2.17.37,1.43.79,3.04,1.3,5.02-1.53.37-3.27.78-5.56,1.33-1.44.98-.15,3.04-.64,4.75-2.03,1.43-3.77-1.43-5.88-.23-.65,1.13-1.43,2.49-2.39,4.15-1.78-1.28-3.29-2.36-4.68-3.36-1.31.96-2.72,2-4.07,3-2.49-.82-2.58-3.62-4.43-4.62-1.32.55-2.65,1.1-3.85,1.6-.6-.6-.97-.97-1.32-1.32-.47-1.43.74-3.26-1.48-4.36h-3.04c-.42-.64-.93-1.41-1.55-2.35.31-.86.79-2.19,1.26-3.52-1.57-1.03-3.11-2.03-4.64-3.03.86-1.8,1.67-3.51,2.58-5.41-1.01-1.01-1.9-1.91-2.93-2.95,1.14-1.64,2.38-2.99,4.05-3.7-.29-1.61-.57-3.19-.75-4.22,1.3-2.99,4.48-.39,5.54-2.91-.2-.22-.45-.5-.72-.79.37-1.13.75-2.29,1.21-3.7,1.6.5,3.21,1.01,4.88,1.54,1.11-1.4,2.36-3,3.66-4.64,1.45,1.09,2.75,2.08,4.16,3.14,1.46-.91,3.08-1.93,4.91-3.07.7,1.36,1.38,2.66,2.1,4.05,1.56-.25,3.3.45,5-.76ZM38.93,43.36c1.22-.78,2.14-1.41,3.11-1.98,1.74-1.03,1.65-3,2.32-4.55.56-1.3-.4-2.5-1.01-3.47-.82-1.3-2.08-2.36-3.3-3.35-.62-.51-1.55-.64-2.27-.91-.37.33-.65.57-.85.75-.46-.3-.87-.57-1.03-.67-2.99.92-5.05,2.59-6.39,5.37v3.9c.78,1.88,2.65,2.59,3.97,3.82,1.54,1.43,3.55,1.07,5.45,1.09ZM31.79,50.89c.03,1.23-.45,3.43,1.36,5.09,2.28-.52,3.22-1.47,3.33-3.7.1-2.07.02-4.15.02-6.31-.62-.41-1.23-.81-1.86-1.24-.9,1.95-1.71,3.7-2.85,6.15ZM25.47,49.46c.19,1.46-.78,3.58,1.81,4.2,3.34-2.64,4.67-6.18,5.35-10.43-3.85.74-5.25,3.7-7.15,6.22ZM45.65,38.61c2.18,2.7,5.78,1.79,7.78,3.86,1.31-1.08,4.37-.34,3.49-3.49-3.74-1.36-6.43-2.53-9.94-1.78-.34.36-.69.73-1.33,1.4ZM19,26c.64.97,1.08,2.39,2.02,2.92,1.97,1.12,4.19,1.83,6.36,2.56.6.2,1.37-.11,2.58-.25-2.27-2.57-3.95-4.94-6.68-6.23-1.95-.93-2.41-.84-4.28,1ZM44.44,51.72c1.62.78,2.91,1.41,4.17,2.01.48-.49.84-.86.97-.99-.22-1.24-.41-2.3-.68-3.86-.77-.73-1.85-1.85-3.04-2.85-1.12-.94-1.78-2.52-3.58-2.74-1.18,3.4,2.29,5.44,2.16,8.43ZM19.77,45.35c1.07,3.07,1.75,3.25,4.28,2.21,2.92-1.2,3.96-3.82,5.74-6.57-4.4-.07-7.17,2.1-10.02,4.36ZM38.33,44.74c-.21,2.82.19,7.58.39,8.37.38,1.49,1.4,2.28,2.4,2.94,2.24-.56,1.21-2.77,2.4-3.69-1.98-4.44-3.17-6.26-5.19-7.62ZM54.91,47.89c-.91-1.94-1.51-3.71-3.42-4.54-2.27-.99-4.4-2.49-7.53-2.19,1.1,1.54,1.82,2.87,2.83,3.91,1.1,1.13,2.47,2,3.53,2.82h4.59ZM42.41,29.15c.98-.71,2.04-1.34,2.92-2.17.78-.74,1.24-2.31,2.02-2.44,2.03-.34-.01-2.71,1.13-2.82-.38-.53-.97-1.36-1.49-2.09-4.39,1.29-4.36,5.3-5.88,8.23.51.51.88.88,1.29,1.29ZM17.96,30.52c-.56.85-.96,1.46-1.33,2.03,1.08,1.08,2,2,2.8,2.81h8.31v-1.78c-1.64-.71-3.15-1.51-4.75-2.01-1.63-.51-3.36-.71-5.04-1.05ZM20.23,37.17c-1.16.84-1.99,1.44-2.66,1.92,0,.67-.13,1.13.03,1.44.23.44.68.77,1.05,1.17,3.45.71,5.99-1.86,9.1-2.43v-2.09h-7.52ZM31.41,18.06c-1.5,2.6.78,4.92,1.31,7.57.15.76,1.17,2.06,2.99,1.93,0-1.25-.23-2.58.06-3.78.32-1.3-1.33-2.47-.03-3.79-.95-1.2-1.94-2.45-3.21-4.04-.52.96-.82,1.53-1.13,2.1ZM49.27,25.11c-1.85,2.05-3.37,3.73-4.91,5.44.06.58.12,1.18.17,1.69,3.41-1.45,7.32-1.7,9.48-5.6-.29-.59-.7-1.45-1.17-2.43-1.26,1.68-2.85.67-3.57.9ZM42.05,18.85c-.86-.75-1.58-1.38-2.07-1.8-.82.71-1.79,1.55-2.64,2.29v7.23c.59.39,1.2.78,2.05,1.34.37-3.46,2.95-5.94,2.66-9.07ZM24.05,21.86c1.64,2.75,5.03,6.11,7.76,7.47-.53-3.49-1.22-6.61-3.9-8.79-.74-.6-1.82-1.53-3.04-.64-.24.57-.47,1.13-.82,1.97ZM45.46,35.47c3.09,0,5.54.15,7.96-.05,1.56-.13,3.09-.77,3.79-2.74-1.21-.73-2.34-1.41-3.41-2.06-2.45,1.99-6.32.96-8.34,4.86Z"/>
        <path class="cls-2" d="M25.67,61.46c-2.95.22-5.77-.37-8.54.75-.78.31-1.95.36-2.95-.41-.4-.31-1.5.42-2.28.43-.41,0-.82-.54-1.2-.82.2-.84.5-1.61.53-2.4.03-.75-.59-1.87-.28-2.2.97-1.01-.7-1.74-.21-2.2,1.09-1.02-.81-1.32-.34-2.28.36-.74.07-1.8.07-2.72v-2.74c-.72-2.63-3.54-3.09-5.05-4.93-1.57-1.91-3.51-3.52-5.42-5.39.31-.48.51-.95.85-1.27.34-.33.81-.51,1.53-.95.11.93.18,1.54.25,2.09,1.11,2.35,3.61,3.3,5.16,5.28,1.55,1.97,3.82,3.37,5.73,4.99-1.27,2.23-.53,4.57-.65,6.81-.13,2.33-.03,4.68-.03,7.23,1.79-.3,3.44-.99,4.89-.7,1.59.32,3-.18,4.5-.13,1.71.06,3.42.01,5.85.01,3.14,3.14,6.64,6.64,10.19,10.19.56-.72,1.18-1.6,1.89-2.4.79-.88,1.61-1.74,2.51-2.5.75-.64,1.76-1.01,2.41-1.72.74-.81,1.21-1.87,1.75-2.75h14.38c1.94-1.37,1.64-2.95.48-4.7.27-.49.56-1.03.84-1.53.09-.92-1.69-1.53-.31-2.71.28-.24-.39-1.47-.46-2.26-.09-1.04-.02-2.1-.02-3.44,3.02-2.85,5.88-6.17,9.59-9.22.32-.94-.63-1.86-1.59-2.42-3.55-2.07-5.8-5.51-8.82-8.02v-13.67h-15.4c0-1.95-2.06-1.81-2.78-3.16-.77-1.43-2.07-2.59-3.2-3.8-1.07-1.16-2.22-2.24-3.25-3.27-3.68,3.68-7.36,7.36-10.95,10.96-2.13-1.55-4.28-.62-6.27-.89-1.4-2.06-3.48.71-5.07-.71-.92.61-1.91,1.26-2.85,1.88.37.93.48,3.8.31,4.56-.11.49-.26,1.02-.18,1.49.34,1.93.75,3.85,1.19,6.01-1.81.52-1.49,3.35-3.88,4.27-1.76.67-3.01,2.68-4.89,4.48-.2-1.22-.3-1.8-.4-2.41,2.85-1.67,4.69-4.37,6.94-6.3-.21-.81-.52-1.49-.53-2.18-.06-3.02.03-6.05-.05-9.06-.03-.96-.41-1.9-.74-3.29.3-.08.99-.27,1.67-.46-.19-.21-.38-.43-.57-.64h3.13c1.05,0,2.11-.06,3.15.02.99.08,1.97.43,2.95.44.9,0,1.8-.37,2.71-.44,1.04-.08,2.09-.02,2.99-.02,2.12-1.47,3.16-3.99,5.68-4.77.89-2.43,3.19-3.64,4.64-5.46h1.75c.16.45.19,1.03.5,1.35,3.21,3.27,6.46,6.5,9.6,9.64,1.63.18,2.96-.64,4.51-.3,1.74.38,3.77.76,5.35.2,1.79-.64,3.46-.58,5.2-.63.35.69.69,1.34,1.04,2.02-1.44,1.31-.56,3.11-.64,4.71-.08,1.67.92,3.75.23,4.95-1.18,2.06,1.62,2.99.61,4.26,3.79,3.45,7.36,6.69,11.14,10.13-1.79,1.76-3.15,3.96-5.64,4.97-.75,2.55-3.39,3.49-4.82,5.96,0,2.05-.12,4.55.03,7.02.14,2.27-.72,4.66.78,7.17-.84.27-1.74.78-2.64.8-4.47.08-8.93.04-13.56.04-1.77,1.77-3.41,3.93-5.53,5.38-2.04,1.4-2.66,4.3-5.85,4.55-.94-.94-2.17-2.24-3.48-3.47-1.39-1.3-2.46-3-4.4-3.63-.24-2.14-2.26-2.51-3.8-3.65Z"/>
        <path class="cls-2" d="M35.92,34.09c.97.3,1.77.55,2.71.85.24.46.57,1.11.72,1.41-.6.83-1.19,1.66-1.86,2.59-.99-.46-1.75-.81-2.42-1.11-.23-1.51-.44-2.77.84-3.74Z"/>
      </g>
    </g>
  </g>
</svg>