<?xml version="1.0" encoding="UTF-8"?>
<svg id="Layer_2" data-name="Layer 2" xmlns="http://www.w3.org/2000/svg" viewBox="0 0 2712.12 1221.01">
  <defs>
    <style>
      .cls-1 {
        fill: #fff;
        stroke-width: 0px;
      }
    </style>
  </defs>
  <g id="Layer_1-2" data-name="Layer 1">
    <g>
      <path class="cls-1" d="M55.21,1019.89c18.93,4.73,37.07,7.1,53.63,7.1,115.94,0,180.61-108.84,216.1-182.97l136.44-344.65h30.76l179.82,370.68c43.38,89.91,85.97,141.17,104.89,127.77l7.89-5.52s.79,5.52.79,14.98v8.68h-246.07v-23.66l8.68-.79c27.6-2.37,24.45-50.48-8.68-119.88l-9.46-19.72h-170.36l-2.37,7.1c-14.2,41.8-123.82,274.46-283.14,277.62-36.28.79-74.14-16.56-74.14-56,0-35.49,25.24-68.62,55.21-60.73ZM372.26,820.36l143.54.79-80.45-170.36-63.09,169.57Z"/>
      <path class="cls-1" d="M735.25,1205.23c70.19-22.87,91.49-52.84,91.49-185.34.79.79.79-87.54.79-171.93-.79-83.6-8.68-103.32-45.74-121.46l-7.89-3.94s-.79-3.94-.79-7.89l144.33-58.36h22.08v37.07s0,293.39.79,294.97c0,144.33-45.74,184.55-194.02,232.66l-11.04-15.77ZM877.21,474.92c37.86,0,61.52,24.45,61.52,63.09s-23.66,63.09-61.52,63.09-60.73-24.45-60.73-63.09,23.66-63.09,60.73-63.09Z"/>
      <path class="cls-1" d="M1002.86,1007.27c0-9.46.79-14.98.79-14.98l7.1-.79c29.97-3.15,45.74-55.21,45.74-126.98,0-97.8-7.1-116.72-45.74-138.02l-7.1-3.94s-.79-3.15-.79-7.89l142.75-58.36h22.08v92.28c37.07-82.81,160.89-254.74,352.54-242.12,37.07,2.37,58.36,22.87,58.36,62.31,0,35.49-34.7,57.57-63.88,46.53-34.7-12.62-66.25-18.93-96.22-18.93-130.13,0-214.52,110.42-250.8,188.49v85.18c0,70.19,17.35,118.3,45.74,121.46l7.89.79s.79,5.52.79,14.98v8.68h-219.25v-8.68Z"/>
      <path class="cls-1" d="M1470.57,813.26v-61.52c0-40.22-11.04-66.25-28.39-66.25-34.7,0-51.26,37.86-44.17,93.06-21.29,5.52-37.86,8.68-55.21,8.68s-33.91-3.15-56.79-8.68c-10.25-74.14,66.25-128.55,181.4-124.61,73.35,2.37,120.67,48.11,120.67,123.82v136.44c0,33.91,6.31,56,30.76,56,18.14,0,27.6-6.31,33.12-16.56l11.83,14.98c-18.93,34.7-50.48,56.79-120.67,56.79-31.55,0-56-14.2-64.67-38.65-26.82,17.35-67.04,34.7-108.84,34.7-59.15,0-97.8-45.74-97.8-94.64,0-92.28,129.34-110.42,198.75-113.57ZM1438.24,965.47c11.04,0,22.87-3.15,33.12-10.25l-.79-119.88c-43.38,0-87.54,20.51-87.54,73.35,0,36.28,26.82,56.79,55.21,56.79Z"/>
      <path class="cls-1" d="M1660.65,1015.95v-8.68c0-9.46.79-14.98.79-14.98l7.1-.79c28.39-3.15,46.53-51.26,46.53-121.46v-173.51c0-98.59-7.89-117.51-46.53-138.81l-7.1-3.94s-.79-3.94-.79-7.89l143.54-58.36h22.08v330.46l18.14-15.77c79.66-69.4,121.46-117.51,111.2-121.46-3.94-1.58-3.15-3.15-3.15-15.77v-8.68h129.34v23.66l-9.46.79c-26.03,2.37-80.45,33.91-145.91,82.81l91.49,122.25c48.11,61.52,95.43,103.32,123.82,105.68l9.46.79v23.66h-230.29v-8.68c0-9.46.79-14.98.79-14.98l3.94-.79c16.56-3.15-6.31-52.05-59.94-121.46-13.41-17.35-26.03-34.7-39.43-52.05v52.05c0,70.19,18.14,118.3,45.74,121.46l7.89.79s.79,5.52.79,14.98v8.68h-220.04Z"/>
      <path class="cls-1" d="M2398.88,785.66c0-37.86-19.72-79.66-51.26-79.66-15.77,0-34.7,11.04-56,39.43v124.61c0,70.19,17.35,118.3,45.74,121.46l7.1.79h1.58l-.79,23.66h-217.68v-23.66l7.89-.79c28.39-3.15,44.95-51.26,44.95-121.46v-174.3c0-97.8-7.1-118.3-45.74-138.02l-7.89-3.94s-.79-3.15-.79-7.89l142.75-58.36h22.87v218.46c31.55-31.55,82.81-53.63,133.29-53.63,62.31,0,85.18,47.32,85.18,121.46v143.54c0,67.04,1.58,86.75,1.58,94.64,0,26.82,2.37,98.59,34.7,109.63,39.43,13.41,65.46-26.82,84.39-47.32,8.68-9.46,20.51-13.41,32.34-13.41,22.08,0,44.95,14.2,48.11,37.07,6.31,41.8-20.51,67.04-60.73,77.29-16.56,3.94-34.7,6.31-52.84,6.31-36.28,0-72.56-8.68-100.16-26.82-22.08-14.2-98.59-53.63-98.59-173.51v-195.59Z"/>
    </g>
    <g>
      <path class="cls-1" d="M641.24,0c11.06,0,21.76.9,32.11,2.71,10.34,1.8,20.56,5.11,30.66,9.92l-7.94,27.42c-10.34-4.81-19.66-8.23-27.96-10.28-8.3-2.04-16.77-3.07-25.43-3.07-13.71,0-24.53,3.01-32.47,9.02-7.94,6.01-11.9,14.43-11.9,25.25,0,9.14,2.94,16.48,8.84,22.01,5.89,5.54,15.57,10.34,29.04,14.43l22.73,7.21c20.68,6.49,35.29,15.33,43.83,26.52,8.53,11.18,12.81,23.75,12.81,37.7,0,9.86-1.98,18.82-5.95,26.88-3.97,8.06-9.5,14.92-16.59,20.56-7.1,5.65-15.46,9.98-25.07,12.99-9.62,3-20.2,4.51-31.75,4.51s-23.27-1.03-35.17-3.07-23.75-5.83-35.53-11.36l7.94-27.06c10.34,5.05,20.44,8.78,30.3,11.18,9.86,2.41,20.2,3.61,31.02,3.61,12.99,0,24.05-3,33.19-9.02,9.14-6.01,13.71-14.91,13.71-26.7,0-4.33-.67-8.35-1.98-12.08-1.32-3.73-3.61-7.27-6.85-10.64-3.25-3.37-7.64-6.49-13.17-9.38-5.54-2.89-12.51-5.65-20.92-8.3l-22.73-7.21c-16.59-5.29-29.35-12.5-38.24-21.65-8.9-9.14-13.35-21.52-13.35-37.16,0-19.96,6.55-35.77,19.66-47.44,13.11-11.66,32.16-17.5,57.18-17.5Z"/>
      <path class="cls-1" d="M929.84,3.25v28.14h-71.07v199.13h-33.19V31.39h-69.62V3.25h173.88Z"/>
      <path class="cls-1" d="M1077.39,0c15.39,0,29.58,2.47,42.57,7.4,12.99,4.93,24.23,12.27,33.73,22.01,9.5,9.74,16.89,21.89,22.19,36.44,5.29,14.55,7.94,31.57,7.94,51.05s-2.77,35.78-8.3,50.32c-5.54,14.55-13.11,26.76-22.73,36.62-9.62,9.86-20.99,17.32-34.09,22.37-13.11,5.05-27.36,7.58-42.75,7.58s-29.58-2.47-42.57-7.4c-12.99-4.93-24.23-12.27-33.73-22.01-9.5-9.74-16.9-21.88-22.19-36.44-5.29-14.55-7.94-31.57-7.94-51.05s2.76-35.77,8.3-50.32c5.53-14.55,13.11-26.75,22.73-36.62,9.62-9.86,20.98-17.32,34.09-22.37,13.11-5.05,27.35-7.58,42.75-7.58ZM1005.6,116.88c0,15.39,1.86,28.74,5.59,40.04,3.73,11.31,8.84,20.69,15.33,28.14,6.49,7.46,14.13,12.99,22.91,16.59,8.78,3.61,18.09,5.41,27.96,5.41s19.06-1.8,27.6-5.41c8.53-3.61,15.99-9.14,22.37-16.59,6.37-7.45,11.36-16.83,14.97-28.14,3.61-11.3,5.41-24.65,5.41-40.04s-1.87-29.46-5.59-40.76c-3.73-11.3-8.84-20.62-15.33-27.96-6.49-7.33-14.13-12.74-22.91-16.23-8.78-3.48-18.1-5.23-27.96-5.23s-19.12,1.8-27.78,5.41c-8.66,3.61-16.12,9.14-22.37,16.59-6.26,7.46-11.18,16.84-14.79,28.14-3.61,11.31-5.41,24.66-5.41,40.04Z"/>
      <path class="cls-1" d="M1256.32,3.25h73.95c11.78,0,22.19,1.69,31.21,5.05,9.02,3.37,16.53,8.06,22.55,14.07,6.01,6.01,10.58,13.17,13.71,21.46,3.12,8.3,4.69,17.38,4.69,27.24,0,8.66-1.32,16.48-3.97,23.45-2.65,6.98-6.13,13.05-10.46,18.22-4.33,5.17-9.32,9.62-14.97,13.35-5.65,3.73-11.36,6.8-17.14,9.2l59.88,95.24h-37.16l-53.75-89.1h-37.16v89.1h-31.39V3.25ZM1287.71,114.36h27.42c7.45,0,14.37-.78,20.74-2.34,6.37-1.56,11.9-3.97,16.59-7.21,4.69-3.25,8.42-7.51,11.18-12.81,2.76-5.29,4.15-11.66,4.15-19.12,0-14.67-4.03-25.49-12.08-32.47-8.06-6.97-19.78-10.46-35.17-10.46h-32.83v84.42Z"/>
      <path class="cls-1" d="M1479.26,3.25l56.64,101.73,57-101.73h34.99l-76.84,132.03v95.24h-33.19v-95.24L1442.83,3.25h36.44Z"/>
      <path class="cls-1" d="M1886.55,0c15.39,0,29.58,2.47,42.57,7.4,12.99,4.93,24.23,12.27,33.73,22.01,9.5,9.74,16.89,21.89,22.19,36.44,5.29,14.55,7.94,31.57,7.94,51.05s-2.77,35.78-8.3,50.32c-5.54,14.55-13.11,26.76-22.73,36.62-9.62,9.86-20.99,17.32-34.09,22.37-13.11,5.05-27.36,7.58-42.75,7.58s-29.58-2.47-42.57-7.4c-12.99-4.93-24.23-12.27-33.73-22.01-9.5-9.74-16.9-21.88-22.19-36.44-5.29-14.55-7.94-31.57-7.94-51.05s2.76-35.77,8.3-50.32c5.53-14.55,13.11-26.75,22.73-36.62,9.62-9.86,20.98-17.32,34.09-22.37,13.11-5.05,27.35-7.58,42.75-7.58ZM1814.76,116.88c0,15.39,1.86,28.74,5.59,40.04,3.73,11.31,8.84,20.69,15.33,28.14,6.49,7.46,14.13,12.99,22.91,16.59,8.78,3.61,18.09,5.41,27.96,5.41s19.06-1.8,27.6-5.41c8.53-3.61,15.99-9.14,22.37-16.59,6.37-7.45,11.36-16.83,14.97-28.14,3.61-11.3,5.41-24.65,5.41-40.04s-1.87-29.46-5.59-40.76c-3.73-11.3-8.84-20.62-15.33-27.96-6.49-7.33-14.13-12.74-22.91-16.23-8.78-3.48-18.1-5.23-27.96-5.23s-19.12,1.8-27.78,5.41c-8.66,3.61-16.12,9.14-22.37,16.59-6.26,7.46-11.18,16.84-14.79,28.14-3.61,11.31-5.41,24.66-5.41,40.04Z"/>
      <path class="cls-1" d="M2198.96,3.25v27.42h-100.29v73.59h92.35v27.06h-92.35v99.21h-33.19V3.25h133.48Z"/>
    </g>
  </g>
</svg>